# xmcd
#
# Track frame offsets:
#	225
#	23873
#	46708
#	60313
#	78297
#	97723
#	118003
#	133976
#	151921
#	177783
#
# Disc length: 2668 seconds
#
# Revision: 1467013289
# Processed by: cddbd v1.5.2PL0 Copyright (c) Steve Scherf et al.
# Submitted via: EZCDAudioConverter 8.0.2.1
#
DISCID=6e0a690a
DTITLE=Various Artist - Hà Nội Những Công Trình
DYEAR=2004
DGENRE=Easy Listening
TTITLE0=Anh Thơ - Em là thợ quét vôi
TTITLE1=Việt Hoàn - Những ánh sao đêm
TTITLE2=Thanh Hoa - Cô thợ nề Thủ Đô
TTITLE3=Tốp Nữ - Từ mộ ngã tư đường phố
TTITLE4=Việt Hoàn - Bên lăng Bác Hồ
TTITLE5=Anh Thơ - Khi Thành phố lên đèn
TTITLE6=Trung Đức - Cô thợ hàn
TTITLE7=Tốp Nam Nữ - Hà Nội những công trình
TTITLE8=Hồ Quỳnh Hương - Hồ Gươm chiều thu
TTITLE9=Đăng Dương - Truyền thuyết Hồ Gươm
EXTD=
EXTT0=
EXTT1=
EXTT2=
EXTT3=
EXTT4=
EXTT5=
EXTT6=
EXTT7=
EXTT8=
EXTT9=
PLAYORDER=
